<svg xmlns="http://www.w3.org/2000/svg" viewBox="0 0 221.61 221.62"><defs><style>.cls-1{fill:#9fc5bd;}.cls-2{fill:#efba55;}.cls-3{font-size:19px;fill:#be4e27;font-family:Adrianna-Extrabold, Adrianna;font-weight:800;}</style></defs><g id="Layer_2" data-name="Layer 2"><g id="Layer_1-2" data-name="Layer 1"><circle class="cls-1" cx="110.81" cy="110.81" r="101.56"/><path class="cls-2" d="M100.58,62.29a2.79,2.79,0,0,1-.65.45,2.68,2.68,0,0,1-.78-.2c-.51-.16-.67-.19-.83-.13a.36.36,0,0,1-.35,0c-.23-.12-.35-.09-.44.12a.3.3,0,0,1-.32.19.41.41,0,0,0-.34.17l-.11.17-.37-.2c-.33-.18-.48-.2-1.45-.24l-1.09,0-.25.25c-.25.24-.28.25-1.09.29-1,0-1.39.18-1.46.49s-.18.43-.62.37a2,2,0,0,0-1.65.58c-.33.32-.45.38-.69.38a2,2,0,0,1-.58-.12,3.13,3.13,0,0,0-1.72.1.48.48,0,0,1-.55,0,3.43,3.43,0,0,1-.61-.55c-.19-.23-.41-.42-.49-.42s-.37.3-.43.71a5.81,5.81,0,0,1-1.39,2.24,5.93,5.93,0,0,1-1.77.72,3,3,0,0,0-1.09.45c-.17.13-.18.4,0,.68s.09.29,0,.69a1.63,1.63,0,0,1-.22.62,1,1,0,0,0,0,1,1.11,1.11,0,0,1,0,1.2c-.1.14-.28.39-.39.57a6.12,6.12,0,0,1-1.72,1.52,2.24,2.24,0,0,1-.7.19.94.94,0,0,0-1,.59,3.19,3.19,0,0,1-1.27,1.78,1.81,1.81,0,0,0-.7,1.61l0,.72-.25.07a.88.88,0,0,0-.41.31,5.22,5.22,0,0,1-.38.47,3.58,3.58,0,0,0-.44.85A3.46,3.46,0,0,1,71,82.52a1,1,0,0,0-.42.7,1.75,1.75,0,0,0,.54,1.49,1,1,0,0,1,.33.5c0,.09,0,.3,0,.45s0,.31-.19.52-.23.29-.2.41a1.6,1.6,0,0,0,.66.68c.09,0,.09.07,0,.24a1.23,1.23,0,0,0-.06.7,1,1,0,0,1-.15.85,3.74,3.74,0,0,0-.4,1.75l-.05.62-.37.23c-.56.37-.74.57-.74.81a1,1,0,0,0,.43.8c.25.23.26.27.26.78a5.83,5.83,0,0,1-.08.92,1,1,0,0,0,.83,1.33.77.77,0,0,1,.74.78c0,.39.07.44.31.53s.3.22.52.67a4.3,4.3,0,0,1,.29.71c0,.11.1.16.25.18a1.36,1.36,0,0,1,.63.44c.42.42.42.42.33.69-.15.45,0,.73.47,1.23a5,5,0,0,1,.63.74.61.61,0,0,0,.39.34.42.42,0,0,1,.32.3,3.38,3.38,0,0,0,1.45,1.37A2.48,2.48,0,0,1,79,105.49c.09.28.13.31.38.33a.44.44,0,0,1,.38.19.41.41,0,0,0,.45.28,1,1,0,0,1,.44.16,1.08,1.08,0,0,0,.37.15,6.11,6.11,0,0,0,1.32-.65,1.85,1.85,0,0,1,.73-.22,1.44,1.44,0,0,0,.69-.22c.28-.21.76-.25,1.8-.15a2.86,2.86,0,0,1,1.77.61l.21.19.23-.17a1.63,1.63,0,0,1,.59-.24,2.26,2.26,0,0,0,.66-.29,2.5,2.5,0,0,1,.62-.3,1.48,1.48,0,0,0,.47-.24,1.51,1.51,0,0,1,.84-.25c.62-.09.68-.11.72-.29s.12-.2.54-.27a19.49,19.49,0,0,1,3.32,0c.16,0,.24.1.26.22s.13.22.31.32.69.54.7.71,0,.28,0,.51,0,.43.16.52a2.75,2.75,0,0,0,.85.48,2.3,2.3,0,0,0,.61-.27,1.84,1.84,0,0,1,1.24-.27h.76l.46.51a2.73,2.73,0,0,1,.91,2.09,3.8,3.8,0,0,1-.16,1.46c-.1.4-.21.93-.24,1.18a5.88,5.88,0,0,1-.25,1,5.83,5.83,0,0,0-.22,1.07,2.58,2.58,0,0,0,.62,1.8c.18.25.42.62.53.82a5.57,5.57,0,0,0,.59.8,2.16,2.16,0,0,1,.41.61c0,.1.05.25.08.35a.46.46,0,0,0,.28.29.4.4,0,0,1,.28.3.8.8,0,0,0,.16.35,2.5,2.5,0,0,1,.62,1.16c0,.2,0,.27.19.34s.19.11.19.14-.09.11-.19.18c-.26.17-.25.32.11.84a1.83,1.83,0,0,1,.31.63,4,4,0,0,0,.34.88c.39.79.41,1,.18,1.34s-.22.81.14,1.59c.17.38.39.91.48,1.19a1.14,1.14,0,0,1-.62,1.64,1.85,1.85,0,0,0-.66,1.29,1.25,1.25,0,0,1-.15.53,2.46,2.46,0,0,0-.22.94,2,2,0,0,1-.32,1.14,2,2,0,0,0-.27.68,14.35,14.35,0,0,0-.18,3.67,2,2,0,0,0,.43.57,1.86,1.86,0,0,1,.5.78,1.92,1.92,0,0,0,.31.61,3,3,0,0,1,.53,1.3,3.7,3.7,0,0,0,.81,1.8c.58.81.65,1,.54,1.46a2.81,2.81,0,0,0,.11,1.64,2.64,2.64,0,0,1,.16,1.21,2,2,0,0,0,.1,1,2.66,2.66,0,0,1,.16.68,7.41,7.41,0,0,0,.39,1.91c.43.78.66,1.1.87,1.22a2.8,2.8,0,0,1,.73,1.82,1.44,1.44,0,0,0,.45,1.16,1.34,1.34,0,0,1,.36.48,4.43,4.43,0,0,0,.38.66,1,1,0,0,1,.18.69c0,.53,0,.6-.38.63s-.28.07-.29.16a1.2,1.2,0,0,0,.33,1c.29.32.32.47.14.62s-.11.12,0,.24a1,1,0,0,0,.46.18,1.2,1.2,0,0,1,.65.42,1.59,1.59,0,0,0,.49.38,1.48,1.48,0,0,0,.47-.22,3.6,3.6,0,0,1,1.6-.43,1.23,1.23,0,0,0,.52-.2.7.7,0,0,1,.51-.15,6,6,0,0,0,1.29,0,2.66,2.66,0,0,1,.88,0,1.22,1.22,0,0,0,1.09-.16,1.94,1.94,0,0,1,.94-.24.72.72,0,0,0,.63-.21.68.68,0,0,1,.55-.21c.25,0,.37,0,.67-.29a15,15,0,0,0,2-2,.67.67,0,0,1,.52-.4.87.87,0,0,0,.53-.34,29.13,29.13,0,0,0,1.7-2.56c.35-.62.48-.79.64-.83.37-.07.39-.1.39-.34a1.83,1.83,0,0,1,.26-.71,6.4,6.4,0,0,0,.58-2.32c0-.62.07-.66.38-1a3.41,3.41,0,0,1,1.62-.87,1.51,1.51,0,0,0,.81-.42l.36-.33v-.72a3.69,3.69,0,0,1,.13-1.05,1,1,0,0,0,0-1,.84.84,0,0,1-.12-.55,1,1,0,0,0-.1-.59,1.74,1.74,0,0,1-.16-.6.54.54,0,0,0-.2-.41c-.42-.36-.13-1,.5-1.13s.75-.2.85-.53a2,2,0,0,1,.7-.87,11.31,11.31,0,0,0,1-1,2.6,2.6,0,0,1,1.55-1,2.13,2.13,0,0,0,1-.63c.63-.55.69-.64.74-1.11,0-.21.13-.38.52-.78.66-.69.77-.91.7-1.46,0-.23,0-.78,0-1.23,0-2.6.06-2.71.19-3a.54.54,0,0,0-.25-.8,1.93,1.93,0,0,1-1.08-1.67,1.76,1.76,0,0,0-.15-.61,4.87,4.87,0,0,1-.23-.9,1.54,1.54,0,0,1,.18-1.24c.24-.35.11-.82-.33-1.24-.28-.27-.3-.47-.08-.89a.79.79,0,0,1,.83-.49c.35,0,.35,0,.37-.29s-.08-.57-.36-.63-.29-.14-.09-.4a1.11,1.11,0,0,0,.2-.54c.1-.81.12-.87.47-1.21a1.41,1.41,0,0,0,.33-.45,2.88,2.88,0,0,1,.5-.62,2.19,2.19,0,0,0,.5-.64,5.86,5.86,0,0,1,1.25-1.45,6,6,0,0,0,.68-.81,13.76,13.76,0,0,1,3.15-3,2.11,2.11,0,0,0,1.07-1,3.67,3.67,0,0,1,.93-1.08,2.81,2.81,0,0,0,1.13-1.71,2.38,2.38,0,0,1,.49-.88,2.06,2.06,0,0,0,.63-1.23,2.53,2.53,0,0,1,.18-.65c.06-.14.17-.41.23-.59a13,13,0,0,1,1.17-2.1,2.19,2.19,0,0,0,.48-1.47,1.92,1.92,0,0,1,.11-.72,1.19,1.19,0,0,0,0-1,1.18,1.18,0,0,1-.11-.43c0-.23-.2-.48-.38-.48a1,1,0,0,0-.37.19,3.91,3.91,0,0,1-1.79.62,1.3,1.3,0,0,0-.67.1,2.35,2.35,0,0,1-.76.16.71.71,0,0,0-.65.27l-.29.28-.62,0a2.57,2.57,0,0,0-1.33.17c-.82.27-1.39.3-1.57.1a1.93,1.93,0,0,1-.26-.54c-.16-.5-.32-.66-.71-.64-.23,0-.33,0-.38-.12s0-.4.29-.4a.32.32,0,0,0,.35-.44c0-.12-.07-.34-.09-.5s-.08-.32-.29-.41a.56.56,0,0,1-.31-.27,3.26,3.26,0,0,0-.27-.5,1.71,1.71,0,0,1-.22-.39c0-.13-.27-.3-.61-.4l-.48-.12c-.07,0-.17-.17-.23-.32a3.61,3.61,0,0,0-1.17-1.12c-.12-.09-.36-.26-.52-.4a1,1,0,0,0-.39-.25c-.18,0-.44-.4-.39-.62a9.71,9.71,0,0,0-.66-2.67c-.25-.59-.27-.61-.53-.61s-.23,0-.27-.23-.09-.23-.22-.23c-.53,0-.88-.76-.88-1.93a4.26,4.26,0,0,0-.47-2.14c-.4-.84-.7-1.25-1-1.3a1,1,0,0,1-.71-1.24,1.25,1.25,0,0,0,.08-.42c0-.18,0-.24-.19-.28a.47.47,0,0,1-.35-.47,5.89,5.89,0,0,0-.8-1.55,1.8,1.8,0,0,1-.29-.43,3.34,3.34,0,0,0-.43-.54c-.3-.3-.31-.33-.31-.82s0-.53-.24-.71c-.94-.83-1.93-2.7-1.6-3.05a2.88,2.88,0,0,0-.35-1,10.18,10.18,0,0,1-.41-1s.09,0,.21,0c.31,0,.15,0-.76-.27s-1-.24-1.2,0a.73.73,0,0,1-.33.16.6.6,0,0,0-.38.31,1.17,1.17,0,0,1-.29.34,1.66,1.66,0,0,1-1,0c-.21-.06-.57-.15-.79-.19a2.13,2.13,0,0,1-.63-.24,3.13,3.13,0,0,0-.92-.3c-.39-.07-.76-.17-.83-.19s-.16,0-.23.11-.27.2-.53-.22a1.24,1.24,0,0,0-.36-.42l-1-.08c-1.13-.06-1.14-.07-1.14-.38s-.19-.5-.55-.57a.51.51,0,0,1-.37-.27c-.19-.36-.52-.36-.91,0a2.14,2.14,0,0,1-.81.42c-.6.17-.69.23-.8.57a.91.91,0,0,0,.07.7,2.54,2.54,0,0,1,.16.62,1.12,1.12,0,0,1-.58.9.87.87,0,0,1-1.15-.08c-.77-.56-.81-.57-1.31-.57a4.32,4.32,0,0,1-1.76-.5,1.53,1.53,0,0,1-.71-.92c-.2-.62-.33-.72-1.21-.78-.55,0-.6-.06-.84-.31a1.16,1.16,0,0,0-.8-.37,7.29,7.29,0,0,0-.89-.1c-.58,0-.91-.13-1.09-.43s-.25-.31-.44-.19-.18,0-.33-.12a1,1,0,0,0-.28-.18s-.1-.1-.16-.22a.54.54,0,0,1,.38-.74.56.56,0,0,0,.35-.3,1.33,1.33,0,0,1,.25-.35c.28-.26.23-.63-.14-1s-.3-.34-.3-.64a.93.93,0,0,1,.27-.68c.26-.34.29-.52.08-.52a.63.63,0,0,0-.28.2l-.18.19-.38-.38C101.37,61.75,101.23,61.73,100.58,62.29Zm26.06,48.59a.08.08,0,0,1-.08.08.09.09,0,0,1-.08-.08.08.08,0,0,1,.08-.08A.07.07,0,0,1,126.64,110.88Z"/><path class="cls-2" d="M74.59,73c-.13.13-.11.37,0,.42s.19,0,.31-.18a1,1,0,0,0,.17-.28C75.11,72.85,74.69,72.88,74.59,73Z"/><path class="cls-2" d="M69.85,73.63a.33.33,0,0,0-.16.17c-.06.12,0,.13.17.09s.25-.1.25-.16S70,73.57,69.85,73.63Z"/><path class="cls-2" d="M74.14,73.84c-.23.37-.27.57-.17.69s.36.14.57-.08a.51.51,0,0,0,0-.74C74.39,73.52,74.3,73.54,74.14,73.84Z"/><path class="cls-2" d="M71.25,73.88a.81.81,0,0,0-.26.18c-.09.12-.07.17.11.36a.75.75,0,0,0,.31.23c.13,0,.48-.41.53-.64s0-.21-.24-.2A1.37,1.37,0,0,0,71.25,73.88Z"/><path class="cls-2" d="M72.29,74.46c-.13.15,0,.47.17.6s.57-.29.32-.57S72.42,74.3,72.29,74.46Z"/><path class="cls-2" d="M61.89,90.42a.33.33,0,0,0,.35.28c.25,0,.29-.12.09-.26S61.89,90.28,61.89,90.42Z"/><path class="cls-2" d="M62.41,91.93c-.15.08-.19.56-.06.64s.5-.16.56-.31C63,91.93,62.74,91.73,62.41,91.93Z"/><path class="cls-2" d="M100.3,107.38c-.33.18-.43.43-.22.63s.72,0,.72-.47c0-.21,0-.25-.17-.25A.78.78,0,0,0,100.3,107.38Z"/><path class="cls-2" d="M91.76,117c-.1.1.11.26.34.26s.22,0,.2-.14S91.86,116.93,91.76,117Z"/><path class="cls-2" d="M136.78,120.79c-.09.09-.06.23.1.42l.15.18v-.2C137,121,136.87,120.7,136.78,120.79Z"/><path class="cls-2" d="M141.16,128.46a.15.15,0,0,0,.16.16.14.14,0,0,0,.15-.16.14.14,0,0,0-.15-.15A.14.14,0,0,0,141.16,128.46Z"/><path class="cls-2" d="M147.94,129.38a1.49,1.49,0,0,0-.28.37s.08.13.19.23a.48.48,0,0,1,.19.26,2.41,2.41,0,0,1-.91.82.43.43,0,0,0-.39.45.54.54,0,0,1-.19.39.58.58,0,0,0-.19.41c0,.21,0,.22-.24.17s-.52.06-.52.26a.31.31,0,0,1-.36.29c-.1,0-.15,0-.16.17,0,.29-.21.43-.75.64a5.73,5.73,0,0,0-.74.36,1.09,1.09,0,0,1-.41.15.77.77,0,0,0-.37.16,1.45,1.45,0,0,1-.41.21c-.18.05-.21.1-.23.36a.74.74,0,0,1-.21.49,2.57,2.57,0,0,0-.53,1.15c-.15.56-.11.78.2,1.12a1.44,1.44,0,0,1,.27.47c0,.11.07.3.11.43a1.58,1.58,0,0,1-.12,1.23,2.64,2.64,0,0,0-.42.93,2,2,0,0,1-.49.76,5.65,5.65,0,0,0-.54.69,1.58,1.58,0,0,0,.15,1.48,3.35,3.35,0,0,1,.34,1.11c.16,1.27.21,1.41.68,1.85a2.35,2.35,0,0,0,.67.47,3.18,3.18,0,0,0,2.28-.79c.55-.39.59-.48.77-1.49a3.3,3.3,0,0,1,.33-1,3.49,3.49,0,0,0,.36-1.08,2.76,2.76,0,0,1,.33-1,1.39,1.39,0,0,0,.21-.72.8.8,0,0,1,.24-.67,3.74,3.74,0,0,0,.68-1.5,1.85,1.85,0,0,1,.3-.54,1.86,1.86,0,0,0,.34-1.34,2.78,2.78,0,0,1,.5-1.7,1.12,1.12,0,0,0,.26-.8c0-.49.05-.55.29-.39s.43.09.37-.21a2.35,2.35,0,0,1,0-.67.8.8,0,0,0-.08-.75,2.19,2.19,0,0,1-.15-1.19c0-.8,0-.89-.18-1.2a3.31,3.31,0,0,1-.25-.59.74.74,0,0,0-.57-.56A.91.91,0,0,0,147.94,129.38Z"/><path class="cls-2" d="M157.23,139.93a1,1,0,0,0-.4.73c0,.22.29.11.61-.23s.39-.5.24-.5l-.17,0A.48.48,0,0,0,157.23,139.93Z"/><path class="cls-2" d="M154.36,141.27c-.19.19-.07.36.25.33s.27,0,.27-.22,0-.2-.19-.21A.41.41,0,0,0,154.36,141.27Z"/><text class="cls-3" transform="matrix(0.67, -0.74, 0.74, 0.67, 55.01, 70.35)">N</text><text class="cls-3" transform="matrix(0.83, -0.56, 0.56, 0.83, 65.71, 58.64)">O</text><text class="cls-3" transform="translate(79.91 49.61) rotate(-24.03)"> </text><text class="cls-3" transform="translate(86.74 46.37) rotate(-15.14)">P</text><text class="cls-3" transform="matrix(1, -0.04, 0.04, 1, 99.91, 42.72)">O</text><text class="cls-3" transform="translate(116.58 42.08) rotate(11.51)">O</text><text class="cls-3" transform="translate(132.89 45.61) rotate(24.53)">R</text><text class="cls-3" transform="matrix(0.83, 0.56, -0.56, 0.83, 146.32, 52.15)"> </text><text class="cls-3" transform="matrix(0.72, 0.69, -0.69, 0.72, 152.73, 56.08)">A</text><text class="cls-3" transform="translate(164.27 67.6) rotate(55.95)">F</text><text class="cls-3" transform="translate(171.27 77.9) rotate(67.3)">R</text><text class="cls-3" transform="matrix(0.23, 0.97, -0.97, 0.23, 176.68, 91.81)">I</text><text class="cls-3" transform="matrix(0.07, 1, -1, 0.07, 178.63, 98.88)">C</text><text class="cls-3" transform="matrix(-0.16, 0.99, -0.99, -0.16, 179.68, 113.94)">A</text><text class="cls-3" transform="translate(176.62 130.07) rotate(109.11)"> </text><text class="cls-3" transform="translate(174.01 137.29) rotate(114.78)">.</text><text class="cls-3" transform="matrix(-0.51, 0.86, -0.86, -0.51, 171.44, 142.82)"> </text><text class="cls-3" transform="translate(167.9 149.41) rotate(130.35)">N</text><text class="cls-3" transform="matrix(-0.81, 0.59, -0.59, -0.81, 157.57, 161.5)">O</text><text class="cls-3" transform="matrix(-0.9, 0.44, -0.44, -0.9, 143.69, 170.98)"> </text><text class="cls-3" transform="translate(136.99 174.42) rotate(162.97)">P</text><text class="cls-3" transform="translate(123.91 178.51) rotate(175.64)">O</text><text class="cls-3" transform="translate(107.27 179.69) rotate(-170.37)">O</text><text class="cls-3" transform="translate(90.93 176.62) rotate(-158.12)">R</text><text class="cls-3" transform="translate(77.21 170.59) rotate(-147.99)"> </text><text class="cls-3" transform="translate(70.69 166.88) rotate(-137.94)">A</text><text class="cls-3" transform="translate(58.77 155.73) rotate(-125.91)">F</text><text class="cls-3" transform="translate(51.46 145.7) rotate(-114.58)">R</text><text class="cls-3" transform="translate(45.58 131.93) rotate(-105.31)">I</text><text class="cls-3" transform="matrix(-0.1, -0.99, 0.99, -0.1, 43.41, 124.94)">C</text><text class="cls-3" transform="translate(41.87 109.95) rotate(-82.78)">A</text><text class="cls-3" transform="translate(44.39 93.74) rotate(-72.77)"> </text><text class="cls-3" transform="translate(46.72 86.44) rotate(-66.26)">.</text></g></g></svg>