<?xml version="1.0" encoding="utf-8"?>
<!-- Generator: Adobe Illustrator 24.2.1, SVG Export Plug-In . SVG Version: 6.00 Build 0)  -->
<svg version="1.1" xmlns="http://www.w3.org/2000/svg" xmlns:xlink="http://www.w3.org/1999/xlink" x="0px" y="0px"
	 viewBox="0 0 1920 1200" style="enable-background:new 0 0 1920 1200;" xml:space="preserve">
<style type="text/css">
	.st0{fill:#F4F1DE;}
	.st1{fill:#9FC5BD;}
	.st2{fill:#EFBA54;}
	.st3{fill:#BF4F27;}
	.st4{fill:#D4E09A;}
	.st5{fill:#DD9362;}
</style>
<g id="Layer_1">
	<rect class="st0" width="1920" height="1200"/>
</g>
<g id="Layer_2">
	<path class="st1" d="M34.6,30.4C-29.4,81-70.7,179.6-45.9,271.9C-15.4,385.6,102.6,442.5,193,448.5
		C367.3,460,531.9,288.2,512.4,170.6C488.8,27.4,183.5-87.7,34.6,30.4z"/>
	<path class="st2" d="M0.1,526.6c3.9,110.8,135.6,210.6,244,206.2c179.6-7.3,324.8-301.5,248.3-458.6
		C458.8,205.2,376.3,149.8,332.5,169c-56.9,24.9-12.7,160.4-86.3,206.2c-56.7,35.3-115.9-24.9-180.9,14.7
		C18.3,418.5-1.5,480.8,0.1,526.6z"/>
	<path class="st3" d="M1951.2,789.7c70.7-32.7,93.4-244.6-12.4-367.6c-110.1-128-341.1-138.7-453.2-23.1
		c-80.3,82.8-102.9,233.8-46.2,286.6c50.8,47.3,124-22.3,270.9,7.2C1856.4,722.1,1898.7,814,1951.2,789.7z"/>
	<path class="st4" d="M1086.7,851.3c-67.9,37.2-85.1,198.6-18.9,296.6c98.5,146,388,160.6,481.8,25.2
		c60.7-87.6,41.3-240.8-31.6-288.2c-55.2-35.9-101.7,14.7-244-2.1C1158,869.2,1128.3,828.5,1086.7,851.3z"/>
	<path class="st5" d="M1627.3,544.6c-151.3-13.5-392.1,288.8-321.9,494.4c83.5,244.7,595.4,316.9,742.7,132.5
		c67.2-84.1,71.6-238.1,8.4-330.3c-39.5-57.7-77.2-50-212.5-141C1689.2,596.2,1684.4,549.7,1627.3,544.6z"/>
</g>
</svg>
